Coordinates
version=1
nRows=32
nColumns=12
inDegrees=yes

Units are S.I. units (second, meters, Newtons, ...)
Angles are in degrees

endheader
time	SC_y	SC_z	SC_x	AC_y	AC_z	AC_x	GH_y	GH_z	GH_yy	EL_x	PS_y
       0.0              -28.53          17.91          69.43          31.76         -1.432          13.82          24.68          75.45         -18.97          48.46          124.4
  0.003458              -28.53          17.91          69.42          31.76         -1.434          13.82          24.68          75.44         -18.98          48.46          124.4
  0.006917              -28.54          17.91          69.41          31.77         -1.435          13.82          24.68          75.43          -19.0          48.47          124.4
   0.01038              -28.54           17.9           69.4          31.78         -1.437          13.82          24.68          75.41         -19.02          48.48          124.4
   0.01383              -28.54           17.9          69.39          31.78         -1.439          13.82          24.68           75.4         -19.03           48.5          124.3
   0.01729              -28.54           17.9          69.38          31.79         -1.441          13.81          24.68          75.39         -19.05          48.51          124.3
   0.02075              -28.55          17.89          69.37          31.79         -1.444          13.81          24.68          75.37         -19.08          48.52          124.3
   0.02421              -28.55          17.89          69.36           31.8         -1.446          13.81          24.68          75.36          -19.1          48.53          124.3
   0.02767              -28.55          17.88          69.35          31.81         -1.449          13.81          24.69          75.34         -19.12          48.55          124.2
   0.03113              -28.56          17.88          69.34          31.82         -1.451           13.8          24.69          75.32         -19.15          48.56          124.2
   0.03458              -28.56          17.87          69.33          31.83         -1.454           13.8          24.69           75.3         -19.18          48.58          124.2
   0.03804              -28.57          17.87          69.31          31.84         -1.458           13.8          24.69          75.28         -19.21          48.59          124.2
    0.0415              -28.57          17.86           69.3          31.85         -1.461           13.8          24.69          75.26         -19.24          48.61          124.1
   0.04496              -28.58          17.85          69.28          31.86         -1.465          13.79          24.69          75.24         -19.28          48.63          124.1
   0.04842              -28.58          17.85          69.26          31.87         -1.469          13.79           24.7          75.21         -19.32          48.66          124.0
   0.05188              -28.59          17.84          69.24          31.89         -1.473          13.79           24.7          75.18         -19.36          48.68          124.0
   0.05533              -28.59          17.83          69.22           31.9         -1.478          13.78           24.7          75.15          -19.4          48.71          123.9
   0.05879               -28.6          17.82           69.2          31.92         -1.483          13.78           24.7          75.12         -19.45          48.73          123.9
   0.06225              -28.61          17.81          69.17          31.93         -1.489          13.77          24.71          75.08         -19.51          48.76          123.8
   0.06571              -28.62           17.8          69.14          31.95         -1.495          13.77          24.71          75.04         -19.57           48.8          123.8
   0.06917              -28.63          17.79          69.11          31.97         -1.502          13.76          24.71           75.0         -19.63          48.84          123.7
   0.07263              -28.64          17.77          69.08           32.0         -1.509          13.75          24.72          74.95          -19.7          48.88          123.6
   0.07608              -28.65          17.76          69.04          32.02         -1.517          13.75          24.72          74.89         -19.78          48.92          123.5
   0.07954              -28.66          17.74           69.0          32.05         -1.527          13.74          24.73          74.83         -19.87          48.97          123.4
     0.083              -28.67          17.72          68.96          32.08         -1.537          13.73          24.73          74.77         -19.97          49.03          123.3
   0.08646              -28.69           17.7          68.91          32.12         -1.548          13.72          24.74          74.69         -20.08          49.09          123.2
   0.08992              -28.71          17.68          68.85          32.15         -1.561          13.71          24.74          74.61          -20.2          49.16          123.1
   0.09338              -28.73          17.65          68.79           32.2         -1.575          13.69          24.75          74.52         -20.33          49.24          122.9
   0.09683              -28.75          17.62          68.71          32.25         -1.591          13.68          24.76          74.41         -20.49          49.32          122.8
    0.1003              -28.77          17.59          68.63           32.3          -1.61          13.66          24.77           74.3         -20.66          49.42          122.6
    0.1038               -28.8          17.55          68.54          32.37         -1.631          13.64          24.78          74.16         -20.86          49.54          122.4
    0.1072              -28.83          17.51          68.43          32.44         -1.655          13.62          24.79           74.0         -21.09          49.67          122.1
